<?xml version="1.0" encoding="UTF-8"?>
<svg id="Layer_1" xmlns="http://www.w3.org/2000/svg" version="1.1" viewBox="0 0 497 313.69">
  <!-- Generator: Adobe Illustrator 29.7.1, SVG Export Plug-In . SVG Version: 2.1.1 Build 8)  -->
  <defs>
    <style>
      .st0 {
        fill: #263238;
      }

      .st1 {
        fill: #fff;
      }

      .st2 {
        opacity: .4;
      }

      .st3 {
        fill: #ff725e;
      }

      .st4 {
        isolation: isolate;
      }

      .st4, .st5 {
        opacity: .1;
      }

      .st6 {
        fill: #455a64;
      }

      .st7 {
        fill: #ebebeb;
      }

      .st8 {
        opacity: .5;
      }
    </style>
  </defs>
  <g id="freepik--Device--inject-57">
    <path class="st1" d="M497,70.33v185.36H84.92c-15.46.48-28.39-11.66-28.87-27.13-.48-15.46,11.66-28.39,27.13-28.87.58-.02,1.17-.02,1.75,0h2.08c4.44-14.96,17.02-26.08,32.4-28.67,4.46-15.68,20.78-24.78,36.46-20.32,3.48.99,6.76,2.61,9.65,4.79,1.63-1.1,3.32-2.09,5.07-2.97,6.73-7.26,15.98-11.68,25.86-12.34-4.22-21.53,9.81-42.41,31.34-46.64,14.57-2.86,29.51,2.64,38.75,14.26,8.98-14.65,27.47-20.31,43.11-13.19,18.86-16.46,47.37-15.04,64.5,3.22,4.51-1.59,9.25-2.43,14.03-2.48-7.83-9.64-6.36-23.8,3.28-31.63,4-3.24,8.98-5.02,14.13-5.03h1.44c6.35-24.43,31.31-39.08,55.73-32.73,20.11,5.23,34.16,23.37,34.2,44.14l.03.22h.01Z"/>
    <g class="st2">
      <path class="st3" d="M497,72.33v185.36H84.92c-15.46.48-28.39-11.66-28.87-27.13-.48-15.46,11.66-28.39,27.13-28.87.58-.02,1.17-.02,1.75,0h2.08c4.44-14.96,17.02-26.08,32.4-28.67,4.46-15.68,20.78-24.78,36.46-20.32,3.48.99,6.76,2.61,9.65,4.79,1.63-1.1,3.32-2.09,5.07-2.97,6.73-7.26,15.98-11.68,25.86-12.34-4.22-21.53,9.81-42.41,31.34-46.64,14.57-2.86,29.51,2.64,38.75,14.26,8.98-14.65,27.47-20.31,43.11-13.19,18.86-16.46,47.37-15.04,64.5,3.22,4.51-1.59,9.25-2.43,14.03-2.48-7.83-9.64-6.36-23.8,3.28-31.63,4-3.24,8.98-5.02,14.13-5.03h1.44c6.35-24.43,31.31-39.08,55.73-32.73,20.11,5.23,34.16,23.37,34.2,44.14l.03.22h.01Z"/>
    </g>
    <path class="st1" d="M496.45,177.69h.55v108H139v-.64c-9.15-1.49-15.37-10.12-13.88-19.27,1.31-8.06,8.23-14.01,16.39-14.09h1.59c3.96-5.37,10.23-8.54,16.9-8.53,1.11,0,2.21.1,3.31.27-.47-2.16-.71-4.36-.71-6.56.1-17.23,14.15-31.12,31.38-31.02,12.68.07,24.06,7.82,28.78,19.59,8.7-6.27,20.25-6.88,29.56-1.56,7.88-20.97,31.26-31.57,52.23-23.69,6.98,2.62,13.1,7.12,17.69,13,.93-10.46,9.16-18.78,19.61-19.83,3.9-14.59,18.89-23.25,33.49-19.35,11.89,3.18,20.19,13.91,20.28,26.21h0c2.42-.67,4.92-1.01,7.44-1.01,2.7,0,5.39.39,7.99,1.15,6.57-14.52,21.03-23.85,36.97-23.85,1.83,0,3.66.12,5.47.38-.19-1.19-.28-2.4-.27-3.61,0-12.08,9.79-21.88,21.88-21.88s21.88,9.79,21.88,21.88c-.02,1.48-.19,2.96-.52,4.4h0Z"/>
    <path class="st1" d="M258.09,208.19c-1.53-1.75-22.69-16.54-24.3-17.66l3.64-.6s19.35,16.43,20.67,18.26h-.01Z"/>
    <path class="st3" d="M258.15,208.33h0c-.19.38-1.64.71-3.25.93h0c-1.5.25-3.04.25-4.54,0-.46-.3-15.75-7.96-25.1-12.63l-.36-.16h0l-1.31-.66-3.85-1.91-1.5-.77,15.72-2.73c.9.6,8.06,5.6,14.38,10.14l.66.46,1.72,1.26c2.61,1.79,5.13,3.72,7.55,5.77h0l-.11.3h-.01Z"/>
    <g class="st5">
      <path d="M258,208.33h0c-.19.38-1.64.71-3.25.93h0c-1.5.25-3.04.25-4.54,0-.46-.3-16.16-8.2-25.45-12.79,1.53.74,21.62,10.42,25.7,5.8,2.61,1.79,5.13,3.72,7.55,5.77h0v.3h-.01Z"/>
    </g>
    <path class="st3" d="M465.31,225.58h0c0,2.1-11.59,2.73-13.18,2.35s-127.86-50.05-127.86-50.05l46.47-18.37,1.34.93.6.41c8.56,5.93,34.09,23.65,56.4,39.23l1.31.9,1.78,1.23c15.36,10.72,28.79,20.15,33.13,23.37h0Z"/>
    <path class="st1" d="M465.31,225.58c-11.29-8.42-84.96-59.49-94.61-66.16l5.88-2.32s85.81,65.25,88.41,67.85c.18.16.3.39.33.63h-.01Z"/>
    <g class="st8">
      <path class="st4" d="M465.31,225.58h0c0,2.1-11.59,2.73-13.18,2.35s-127.86-50.05-127.86-50.05l46.47-18.37s-11.45,13.12,15.77,33.32c18.56,13.67,38.27,16.59,45.65,9.38,15.36,10.72,28.79,20.15,33.13,23.37h.02Z"/>
    </g>
    <path class="st1" d="M360.11,194.09c-3.58,1.72-7.49,3.09-7.76-.49,0-1.48,1.04-3.06,6.78-5.85,1.37-.63,4.67-2.08,5.63.9s-3.34,4.78-4.65,5.44h0Z"/>
    <path class="st1" d="M389.37,206.06c-3.58,1.72-7.46,3.09-7.76-.49,0-1.48,1.04-3.06,6.81-5.85,1.34-.63,4.65-2.08,5.63.9s-3.31,4.78-4.67,5.44h0Z"/>
    <path class="st1" d="M418.64,218.04c-3.61,1.75-7.49,3.12-7.76-.49,0-1.48,1.01-3.06,6.78-5.82,1.37-.66,4.65-2.1,5.63.87.98,2.98-3.31,4.78-4.65,5.44h0Z"/>
    <path class="st3" d="M409.08,186.57c-3.53,6.26-11.54,8.53-16.59,10.55-13.45,5.47-23.21,8.39-28.02-3.83-.59-1.4-.95-2.89-1.09-4.4-.77-9.24,8.78-13.83,13.67-16.4h0c5.85-3.06,10.01-5.06,13.07-6.37,3-1.47,6.26-2.31,9.6-2.46,2.73,0,8.86.6,10.93,11.86.83,3.75.28,7.67-1.56,11.04h-.01Z"/>
    <path class="st0" d="M409.24,177.88c0,6.86-4.29,12.41-9.6,12.41s-9.6-5.47-9.6-12.41,4.29-12.44,9.6-12.44,9.6,5.49,9.6,12.44Z"/>
    <path class="st6" d="M408.12,177.88c0,6.04-3.8,10.93-8.47,10.93s-8.47-4.92-8.47-10.93,3.8-10.93,8.47-10.93,8.47,4.81,8.47,10.93Z"/>
    <path class="st1" d="M208.28,174.28l-2.21.82-4.99,1.8-17.35-7.45c-16.73-7.18-36.51-15.61-40.33-16.92l.46.16h.38l.6,1h1.59l1.26.39,1.31.42,3.64,1.2,1.26.42,1.15.39.65.21,1.96.65,1.31.44,17.04,5.73,1.62.55,6.36,2.15,10.94,3.69,1.54.52,4.76,1.62h0l1.2.42.58.18h1.51l3.77,1.58v.03h0Z"/>
    <path class="st3" d="M201.09,178.41l-13.4,5.18s-29.93-14.69-47.79-23.89h-.44l-5.11-2.66c-2.61-1.19-5.1-2.64-7.44-4.34.49-1.04,11.59-1.3,16.05,0h.3c3.69,1.33,22.33,9.72,38.71,17.15l.38.17,1.31.61,17.41,7.78h.02,0Z"/>
    <g class="st5">
      <path d="M201.09,177.14l-13.4,4.89s-29.93-13.89-47.79-22.58c2.95,1.23,33.24,14.57,40.71,12.74,1.39-.27,2.56-1.21,3.12-2.52l17.36,7.46h0Z"/>
    </g>
    <path class="st3" d="M236.23,158.27l-32.81,15.78s.33-28.14.58-48.37v-3.73c0-6.93.17-12.5.19-15.04,0-8.28.99-9.8,3.15-8.47,5.31,3.97,10.2,8.45,14.62,13.38,2.37,3.04,7.59,21.52,11.04,34.22v.33l.58,2.12c1.52,5.71,2.65,9.77,2.65,9.77h0Z"/>
    <g class="st5">
      <path d="M235.68,158.06l-32.5,15.64s.33-27.88.57-47.92c4.78,10.66,14.24,25.26,29.42,22.61,1.39,5.66,2.52,9.68,2.52,9.68h-.01Z"/>
    </g>
    <path class="st1" d="M180.34,190.73c-3.36-8.37,10.93-15.96,26.98-23.21,16.05-7.24,175.15-77.36,198.2-83.62,23.05-6.26,49.89,2.32,54.43,15.47,6.81,19.76-21.87,36.3-124.88,79.03-13.5,5.47-73.81,20.09-107.82,20.2-36.3.11-45.27-3.75-46.91-7.87h0Z"/>
    <path class="st7" d="M335.07,178.4c-13.5,5.47-73.81,20.07-107.82,20.17-36.3.14-45.27-3.72-46.91-7.85s1.28-8.53,6.92-12.55c-.03.84.12,1.68.44,2.46,1.5,3.75,9.65,7.24,42.56,7.14,30.81,0,75.12-25.04,87.48-30.07,93.47-38.76,129.96-41.99,123.78-59.9-2.73-7.82-14.02-13.83-27.34-15.47,20.72-2.49,41.94,5.47,45.93,17.09,6.64,19.71-22.14,36.25-125.04,78.98h0Z"/>
    <polygon class="st6" points="231 163.14 235 161.56 235 166.94 231 168.5 231 163.14"/>
    <polygon class="st6" points="237 160.19 241 158.44 241 163.99 237 165.74 237 160.19"/>
    <polygon class="st6" points="244 157.21 248 155.46 248 161.01 244 162.73 244 157.21"/>
    <polygon class="st6" points="251 154.21 255 152.51 255 157.99 251 159.72 251 154.21"/>
    <polygon class="st6" points="258 151.24 262 149.5 262 155.01 258 156.72 258 151.24"/>
    <polygon class="st6" points="265 148.23 269 146.52 269 152 265 153.74 265 148.23"/>
    <polygon class="st6" points="272 145.25 276 143.51 276 149.02 272 150.73 272 145.25"/>
    <polygon class="st6" points="279 142.24 283 140.53 283 146.02 279 147.75 279 142.24"/>
    <polygon class="st6" points="286 139.26 290 137.53 290 143.04 286 144.74 286 139.26"/>
    <polygon class="st6" points="293 136.25 297 134.55 297 140.03 293 141.76 293 136.25"/>
    <polygon class="st6" points="300 133.26 304 131.51 304 137.06 300 138.78 300 133.26"/>
    <polygon class="st6" points="307 130.25 311 128.54 311 134.06 307 135.8 307 130.25"/>
    <polygon class="st6" points="313 127.29 317 125.55 317 131.06 313 132.8 313 127.29"/>
    <polygon class="st6" points="320 124.31 324 122.57 324 128.06 320 129.79 320 124.31"/>
    <polygon class="st6" points="327 121.3 331 119.57 331 125.08 327 126.81 327 121.3"/>
    <polygon class="st6" points="334 118.32 338 116.59 338 122.07 334 123.8 334 118.32"/>
    <polygon class="st6" points="341 115.31 345 113.58 345 119.09 341 120.82 341 115.31"/>
    <polygon class="st6" points="348 112.33 352 110.6 352 116.11 348 117.82 348 112.33"/>
    <polygon class="st6" points="355 109.33 359 107.59 359 113.1 355 114.84 355 109.33"/>
    <polygon class="st6" points="362 106.33 366 104.59 366 110.11 362 111.86 362 106.33"/>
    <polygon class="st6" points="369 103.33 373 101.61 373 107.13 369 108.88 369 103.33"/>
    <polygon class="st6" points="380 98.6 380 104.15 376 105.87 376 100.35 380 98.6"/>
    <polygon class="st6" points="387 95.62 387 101.14 383 102.89 383 97.34 387 95.62"/>
    <polygon class="st6" points="393 92.64 393 98.15 389 99.86 389 94.37 393 92.64"/>
    <polygon class="st6" points="400 89.66 400 95.14 396 96.88 396 91.37 400 89.66"/>
    <path class="st6" d="M418.76,87.69c2.15-1.62,4.62-2.76,7.24-3.36v3.36h-7.24Z"/>
    <path class="st6" d="M434,83.52v4.5c-1.68-.15-3.32-.25-5-.32v-3.95c1.66-.24,3.33-.31,5-.22h0Z"/>
    <path class="st6" d="M451.38,90.4c-1.53,0-2.93-.33-4.35-.49s-2.73-.41-4.13-.55c-2-.3-3.96-.52-5.9-.71v-4.92c3.88.53,7.6,1.86,10.93,3.91.64.39,1.24.83,1.8,1.31.57.45,1.12.94,1.64,1.45h.01Z"/>
    <path class="st3" d="M327.28,134.29l-45.82,21.87s-72.83-38.96-125.07-67.47h-.14c-27.91-15.23-49.21-27.06-48.85-27.53.87-1.18,14.9-1.04,20.45-.27.54.05,1.08.14,1.61.27,2.35.66,84.75,31.16,142.45,52.57l55.36,20.56h.01Z"/>
    <g class="st5">
      <path d="M327.28,134.14l-45.82,21.87s-72.83-38.96-125.07-67.47c4.07,2.05,97.79,49.21,110.03,42.18,4.62-2.73,5.82-9.57,5.47-17.22l55.39,20.64h0Z"/>
    </g>
    <path class="st1" d="M334.09,130.68l-13.67,6.56c-34.8-14.6-179.61-71.84-191.74-76.54h-.68c.54.05,1.08.14,1.61.27,3.44.6,204.48,69.71,204.48,69.71h0Z"/>
    <path class="st1" d="M235.84,132.09c-4.48,2.19-9.35,3.88-9.7-.63-.14-1.83,1.28-3.8,8.5-7.27,1.69-.82,5.82-2.73,7.03,1.12s-4.13,6.1-5.82,6.78h0Z"/>
    <path class="st1" d="M197.07,112.49c-4.48,2.19-9.38,3.91-9.7-.6-.16-1.86,1.28-3.83,8.47-7.3,1.69-.79,5.82-2.73,7.05,1.12s-4.16,5.96-5.82,6.78Z"/>
    <path class="st1" d="M158.15,92.67c-4.16,2.02-8.69,3.64-9.02-.57,0-1.72,1.2-3.55,7.9-6.78,1.59-.77,5.47-2.43,6.56,1.04s-3.85,5.55-5.44,6.31h0Z"/>
    <path class="st3" d="M293.69,127.66c-3.53,6.26-11.51,8.53-16.59,10.55-13.45,5.47-23.21,8.39-28.02-3.83-.56-1.42-.92-2.91-1.07-4.43-.79-9.21,8.75-13.67,13.67-16.4h0c5.85-3.06,9.98-5.06,13.07-6.37,2.99-1.47,6.24-2.31,9.57-2.46,2.73,0,8.86.6,10.93,11.86.82,3.76.27,7.69-1.56,11.07h0Z"/>
    <ellipse class="st0" cx="284.5" cy="119.19" rx="9.5" ry="12.5"/>
    <path class="st6" d="M292.73,118.88c0,6.07-3.77,10.93-8.47,10.93s-8.45-4.92-8.45-10.93,3.77-10.93,8.45-10.93,8.47,4.87,8.47,10.93Z"/>
    <path class="st3" d="M147.9,154.18l-1.37-.44,1.37.44Z"/>
  </g>
</svg>